<svg width="72" height="73" viewBox="0 0 72 73" fill="none" xmlns="http://www.w3.org/2000/svg">
<path d="M41.388 13.1055C40.6887 12.3833 39.8514 11.8091 38.9258 11.4169C38.0002 11.0248 37.0053 10.8227 36 10.8227C34.9948 10.8227 33.9998 11.0248 33.0742 11.4169C32.1486 11.8091 31.3113 12.3833 30.612 13.1055L16.215 27.9735C15.39 28.8255 14.835 29.9055 14.619 31.0755C12.8709 40.6097 12.7421 50.3704 14.238 59.9475L14.766 63.3375C14.934 64.4085 15.858 65.1975 16.941 65.1975H27C27.3978 65.1975 27.7794 65.0394 28.0607 64.7581C28.342 64.4768 28.5 64.0953 28.5 63.6975V42.6975H43.5V63.6975C43.5 64.0953 43.658 64.4768 43.9394 64.7581C44.2207 65.0394 44.6022 65.1975 45 65.1975H55.059C55.5834 65.1973 56.0904 65.0098 56.4886 64.6687C56.8869 64.3277 57.1502 63.8555 57.231 63.3375L57.762 59.9475C59.2578 50.3704 59.129 40.6097 57.381 31.0755C57.1659 29.9063 56.6096 28.8269 55.782 27.9735L41.388 13.1055Z" fill="#FDB202"/>
</svg>
