<svg width="72" height="73" viewBox="0 0 72 73" fill="none" xmlns="http://www.w3.org/2000/svg">
<path fill-rule="evenodd" clip-rule="evenodd" d="M40.674 17.2995C39.417 16.0931 37.7422 15.4194 36 15.4194C34.2577 15.4194 32.583 16.0931 31.326 17.2995L17.448 30.6195C17.1078 30.9457 16.879 31.3708 16.794 31.8345C15.1319 40.8991 15.0092 50.179 16.431 59.2845L16.767 61.4475H25.698V42.8145C25.698 42.2177 25.9351 41.6454 26.357 41.2235C26.779 40.8015 27.3513 40.5645 27.948 40.5645H44.052C44.6487 40.5645 45.221 40.8015 45.643 41.2235C46.0649 41.6454 46.302 42.2177 46.302 42.8145V61.4475H55.233L55.569 59.2875C56.9927 50.1803 56.871 40.8982 55.209 31.8315C55.1226 31.3685 54.8927 30.9445 54.552 30.6195L40.674 17.2995ZM28.212 14.0535C30.3068 12.044 33.0972 10.9219 36 10.9219C38.9028 10.9219 41.6932 12.044 43.788 14.0535L57.669 27.3735C58.689 28.3515 59.379 29.6295 59.634 31.0215C61.386 40.5846 61.5148 50.3745 60.015 59.9805L59.475 63.4515C59.3669 64.1471 59.0135 64.781 58.4787 65.2388C57.9439 65.6966 57.263 65.9479 56.559 65.9475H44.052C43.4553 65.9475 42.883 65.7104 42.461 65.2885C42.0391 64.8665 41.802 64.2942 41.802 63.6975V45.0645H30.198V63.6975C30.198 64.2942 29.9609 64.8665 29.539 65.2885C29.117 65.7104 28.5447 65.9475 27.948 65.9475H15.441C14.737 65.9479 14.0561 65.6966 13.5213 65.2388C12.9865 64.781 12.6331 64.1471 12.525 63.4515L11.985 59.9805C10.4852 50.3745 10.614 40.5846 12.366 31.0215C12.621 29.6295 13.311 28.3515 14.331 27.3705L28.212 14.0535Z" fill="#FDB202"/>
</svg>
