<svg width="72" height="73" viewBox="0 0 72 73" fill="none" xmlns="http://www.w3.org/2000/svg">
<path fill-rule="evenodd" clip-rule="evenodd" d="M57 65.1974H18C15.2152 65.1974 12.5445 64.0912 10.5754 62.1221C8.60625 60.1529 7.5 57.4822 7.5 54.6974V15.5264C7.5 12.3254 10.668 10.2944 13.455 11.2604C13.854 11.3984 14.244 11.5994 14.616 11.8664L15.141 12.2414C16.418 13.1475 17.9456 13.633 19.5114 13.6303C21.0772 13.6276 22.6032 13.1369 23.877 12.2264C25.6651 10.9539 27.8053 10.2701 30 10.2701C32.1947 10.2701 34.3349 10.9539 36.123 12.2264C37.3969 13.1369 38.9228 13.6276 40.4886 13.6303C42.0544 13.633 43.582 13.1475 44.859 12.2414L45.384 11.8664C48.363 9.73645 52.5 11.8664 52.5 15.5264V38.1974H63C63.5967 38.1974 64.169 38.4345 64.591 38.8565C65.0129 39.2784 65.25 39.8507 65.25 40.4474V56.9474C65.25 59.1355 64.3808 61.2339 62.8336 62.7811C61.2865 64.3283 59.188 65.1974 57 65.1974ZM53.25 42.6974V56.9474C53.25 57.942 53.6451 58.8958 54.3484 59.5991C55.0516 60.3024 56.0054 60.6974 57 60.6974C57.9946 60.6974 58.9484 60.3024 59.6516 59.5991C60.3549 58.8958 60.75 57.942 60.75 56.9474V42.6974H53.25ZM40.5 29.9474C40.5 29.3507 40.2629 28.7784 39.841 28.3565C39.419 27.9345 38.8467 27.6974 38.25 27.6974H20.25C19.6533 27.6974 19.081 27.9345 18.659 28.3565C18.2371 28.7784 18 29.3507 18 29.9474C18 30.5442 18.2371 31.1165 18.659 31.5384C19.081 31.9604 19.6533 32.1974 20.25 32.1974H38.25C38.8467 32.1974 39.419 31.9604 39.841 31.5384C40.2629 31.1165 40.5 30.5442 40.5 29.9474ZM37.5 38.9474C37.5 38.3507 37.2629 37.7784 36.841 37.3565C36.419 36.9345 35.8467 36.6975 35.25 36.6974H20.25C19.6533 36.6974 19.081 36.9345 18.659 37.3565C18.2371 37.7784 18 38.3507 18 38.9474C18 39.5442 18.2371 40.1165 18.659 40.5384C19.081 40.9604 19.6533 41.1974 20.25 41.1974H35.25C35.8467 41.1974 36.419 40.9604 36.841 40.5384C37.2629 40.1165 37.5 39.5442 37.5 38.9474ZM38.25 45.6974C38.8467 45.6974 39.419 45.9345 39.841 46.3565C40.2629 46.7784 40.5 47.3507 40.5 47.9474C40.5 48.5442 40.2629 49.1165 39.841 49.5384C39.419 49.9604 38.8467 50.1974 38.25 50.1974H20.25C19.6533 50.1974 19.081 49.9604 18.659 49.5384C18.2371 49.1165 18 48.5442 18 47.9474C18 47.3507 18.2371 46.7784 18.659 46.3565C19.081 45.9345 19.6533 45.6974 20.25 45.6974H38.25Z" fill="#FDB202"/>
</svg>
