<svg width="72" height="73" viewBox="0 0 72 73" fill="none" xmlns="http://www.w3.org/2000/svg">
<path d="M40.5 29.9474C40.5 29.3507 40.2629 28.7784 39.841 28.3565C39.419 27.9345 38.8467 27.6974 38.25 27.6974H20.25C19.6533 27.6974 19.081 27.9345 18.659 28.3565C18.2371 28.7784 18 29.3507 18 29.9474C18 30.5442 18.2371 31.1165 18.659 31.5384C19.081 31.9604 19.6533 32.1974 20.25 32.1974H38.25C38.8467 32.1974 39.419 31.9604 39.841 31.5384C40.2629 31.1165 40.5 30.5442 40.5 29.9474ZM37.5 38.9474C37.5 38.3507 37.2629 37.7784 36.841 37.3565C36.419 36.9345 35.8467 36.6974 35.25 36.6974H20.25C19.6533 36.6974 19.081 36.9345 18.659 37.3565C18.2371 37.7784 18 38.3507 18 38.9474C18 39.5442 18.2371 40.1165 18.659 40.5384C19.081 40.9604 19.6533 41.1974 20.25 41.1974H35.25C35.8467 41.1974 36.419 40.9604 36.841 40.5384C37.2629 40.1165 37.5 39.5442 37.5 38.9474ZM38.25 45.6974C38.8467 45.6974 39.419 45.9345 39.841 46.3565C40.2629 46.7784 40.5 47.3507 40.5 47.9474C40.5 48.5442 40.2629 49.1165 39.841 49.5384C39.419 49.9604 38.8467 50.1974 38.25 50.1974H20.25C19.6533 50.1974 19.081 49.9604 18.659 49.5384C18.2371 49.1165 18 48.5442 18 47.9474C18 47.3507 18.2371 46.7784 18.659 46.3565C19.081 45.9345 19.6533 45.6974 20.25 45.6974H38.25Z" fill="#FDB202"/>
<path fill-rule="evenodd" clip-rule="evenodd" d="M18 65.9474H57C59.188 65.9474 61.2865 65.0783 62.8336 63.5311C64.3808 61.9839 65.25 59.8855 65.25 57.6974V41.1974C65.25 40.6007 65.0129 40.0284 64.591 39.6065C64.169 39.1845 63.5967 38.9474 63 38.9474H53.25V15.5264C53.25 11.2574 48.423 8.77344 44.949 11.2544L44.424 11.6294C43.2744 12.4455 41.8989 12.8829 40.4891 12.8808C39.0792 12.8786 37.7051 12.437 36.558 11.6174C34.6429 10.2544 32.3506 9.52203 30 9.52203C27.6494 9.52203 25.3571 10.2544 23.442 11.6174C22.2949 12.437 20.9208 12.8786 19.5109 12.8808C18.1011 12.8829 16.7256 12.4455 15.576 11.6294L15.051 11.2544C11.577 8.77344 6.75 11.2544 6.75 15.5264V54.6974C6.75 57.6811 7.93526 60.5426 10.045 62.6524C12.1548 64.7622 15.0163 65.9474 18 65.9474ZM26.058 15.2774C27.2098 14.4598 28.5874 14.0205 30 14.0205C31.4126 14.0205 32.7902 14.4598 33.942 15.2774C35.8521 16.6428 38.1407 17.3781 40.4886 17.3808C42.8365 17.3835 45.1268 16.6534 47.04 15.2924L47.565 14.9174C47.677 14.8377 47.8089 14.7902 47.946 14.7803C48.0832 14.7704 48.2205 14.7985 48.3428 14.8613C48.4652 14.9242 48.5678 15.0195 48.6397 15.1368C48.7115 15.2541 48.7496 15.3889 48.75 15.5264V57.6974C48.75 59.0474 49.074 60.3224 49.65 61.4474H18C16.2098 61.4474 14.4929 60.7363 13.227 59.4704C11.9612 58.2045 11.25 56.4877 11.25 54.6974V15.5264C11.2504 15.3889 11.2885 15.2541 11.3603 15.1368C11.4322 15.0195 11.5348 14.9242 11.6572 14.8613C11.7795 14.7985 11.9168 14.7704 12.054 14.7803C12.1911 14.7902 12.323 14.8377 12.435 14.9174L12.96 15.2924C14.8732 16.6534 17.1635 17.3835 19.5114 17.3808C21.8593 17.3781 24.1479 16.6428 26.058 15.2774ZM53.25 57.6974V43.4474H60.75V57.6974C60.75 58.692 60.3549 59.6458 59.6516 60.3491C58.9484 61.0524 57.9946 61.4474 57 61.4474C56.0054 61.4474 55.0516 61.0524 54.3484 60.3491C53.6451 59.6458 53.25 58.692 53.25 57.6974Z" fill="#FDB202"/>
</svg>
