<svg width="72" height="73" viewBox="0 0 72 73" fill="none" xmlns="http://www.w3.org/2000/svg">
<path fill-rule="evenodd" clip-rule="evenodd" d="M19.605 10.4474C18.7405 10.4477 17.8895 10.6615 17.1275 11.0697C16.3656 11.4779 15.7162 12.0679 15.237 12.7874L4.47 28.9334C3.813 29.9234 3.735 31.1894 4.266 32.2514C10.1583 44.0356 18.3467 54.5231 28.35 63.0974L33.6 67.6004C34.2688 68.1737 35.1206 68.4889 36.0015 68.4889C36.8824 68.4889 37.7342 68.1737 38.403 67.6004L43.653 63.1004C53.6578 54.5256 61.8473 44.037 67.74 32.2514C68.271 31.1894 68.19 29.9234 67.533 28.9334L56.76 12.7874C56.2808 12.0689 55.6317 11.4797 54.8703 11.0721C54.1089 10.6644 53.2587 10.4509 52.395 10.4504L19.605 10.4474ZM18.981 15.2804C19.0496 15.1779 19.1424 15.0939 19.2513 15.0358C19.3601 14.9777 19.4816 14.9473 19.605 14.9474H26.625L20.88 28.7354C20.7484 29.0509 20.6479 29.3785 20.58 29.7134C18.4672 29.5557 16.357 29.3657 14.25 29.1434L10.035 28.7024L18.981 15.2804ZM9.84 33.2055C15.2232 43.0816 22.329 51.9157 30.822 59.2905L21.447 34.2884C18.8892 34.1127 16.3348 33.8907 13.785 33.6224L9.84 33.2055ZM26.358 34.5674L36 60.2895L45.645 34.5674C39.2183 34.8596 32.7817 34.8596 26.355 34.5674H26.358ZM50.559 34.2884L41.184 59.2905C49.677 51.9157 56.7828 43.0816 62.166 33.2055L58.221 33.6224C55.671 33.8895 53.118 34.1114 50.559 34.2884ZM61.968 28.7024L57.75 29.1464C55.643 29.3687 53.5328 29.5587 51.42 29.7164C51.3533 29.3805 51.2538 29.052 51.123 28.7354L45.375 14.9474H52.395C52.5184 14.9473 52.6399 14.9777 52.7487 15.0358C52.8576 15.0939 52.9504 15.1779 53.019 15.2804L61.968 28.7024ZM46.779 30.0075C39.6 30.3794 32.409 30.3794 25.227 30.0075L31.5 14.9474H40.5L46.776 30.0075H46.779Z" fill="#FDB202"/>
</svg>
