<svg width="72" height="73" viewBox="0 0 72 73" fill="none" xmlns="http://www.w3.org/2000/svg">
<path d="M28.125 61.8974C28.2207 61.9826 28.3415 62.0343 28.4692 62.0445C28.5969 62.0547 28.7245 62.0229 28.8325 61.954C28.9405 61.885 29.023 61.7827 29.0675 61.6626C29.112 61.5425 29.116 61.4111 29.079 61.2884L21.519 35.3744C21.4504 35.1386 21.3114 34.9294 21.1205 34.775C20.9295 34.6205 20.6959 34.5282 20.451 34.5104C19.227 34.4204 18.006 34.3214 16.785 34.2104L6.675 33.2894C6.56812 33.279 6.46042 33.2978 6.36336 33.3438C6.2663 33.3897 6.18351 33.4611 6.1238 33.5504C6.06409 33.6396 6.0297 33.7434 6.02427 33.8506C6.01885 33.9579 6.0426 34.0646 6.093 34.1594C11.562 44.3894 19.437 54.1394 28.125 61.8974ZM35.541 67.3754C35.601 67.5854 35.781 67.7414 36 67.7414C36.1058 67.7383 36.2078 67.701 36.2905 67.635C36.3733 67.569 36.4324 67.4779 36.459 67.3754L45.711 35.6564C45.7385 35.5643 45.7435 35.467 45.7256 35.3726C45.7076 35.2781 45.6672 35.1894 45.6079 35.1138C45.5485 35.0383 45.4718 34.9781 45.3843 34.9383C45.2968 34.8986 45.201 34.8804 45.105 34.8854C39.0378 35.1458 32.9622 35.1458 26.895 34.8854C26.7994 34.8806 26.7039 34.8987 26.6167 34.9383C26.5295 34.9779 26.4531 35.0378 26.3938 35.113C26.3344 35.1882 26.294 35.2765 26.2757 35.3705C26.2575 35.4645 26.2621 35.5615 26.289 35.6534L35.541 67.3754ZM42.921 61.2884C42.753 61.8584 43.431 62.2934 43.875 61.8974C52.563 54.1364 60.438 44.3894 65.907 34.1594C65.9572 34.0648 65.9809 33.9584 65.9756 33.8515C65.9703 33.7445 65.9362 33.641 65.8768 33.5518C65.8175 33.4627 65.7352 33.3912 65.6386 33.345C65.5419 33.2988 65.4346 33.2796 65.328 33.2894L55.218 34.2104C53.994 34.3214 52.773 34.4204 51.549 34.5104C51.3041 34.5282 51.0705 34.6205 50.8796 34.775C50.6886 34.9294 50.5496 35.1386 50.481 35.3744L42.921 61.2884ZM65.403 28.7654C65.5076 28.7562 65.608 28.7198 65.6941 28.6596C65.7802 28.5995 65.849 28.5178 65.8936 28.4228C65.9383 28.3277 65.9572 28.2226 65.9485 28.118C65.9398 28.0133 65.9037 27.9128 65.844 27.8264L56.13 13.7414C55.716 13.1416 55.1626 12.6513 54.5172 12.3126C53.8718 11.974 53.1538 11.7972 52.425 11.7974H44.955C44.8565 11.7974 44.7595 11.8217 44.6725 11.8681C44.5856 11.9144 44.5115 11.9815 44.4566 12.0634C44.4017 12.1452 44.3679 12.2393 44.358 12.3373C44.3481 12.4353 44.3626 12.5343 44.4 12.6254L51.171 29.1944C51.2672 29.4288 51.4351 29.6267 51.6507 29.7598C51.8662 29.8929 52.1184 29.9544 52.371 29.9354C53.181 29.8724 53.997 29.8034 54.81 29.7254L65.403 28.7654ZM39.495 12.5354C39.4037 12.3165 39.2495 12.1295 39.0519 11.9981C38.8543 11.8668 38.6223 11.7969 38.385 11.7974H33.615C33.3778 11.7969 33.1457 11.8668 32.9481 11.9981C32.7505 12.1295 32.5963 12.3165 32.505 12.5354L25.431 29.5094C25.3944 29.5982 25.3796 29.6946 25.388 29.7903C25.3963 29.886 25.4275 29.9783 25.479 30.0595C25.5304 30.1406 25.6006 30.2082 25.6836 30.2566C25.7666 30.3049 25.86 30.3327 25.956 30.3374C32.646 30.6614 39.354 30.6614 46.047 30.3374C46.1427 30.3322 46.2358 30.3042 46.3184 30.2556C46.401 30.207 46.4708 30.1394 46.5219 30.0583C46.573 29.9772 46.604 29.8851 46.6122 29.7896C46.6204 29.6941 46.6056 29.598 46.569 29.5094L39.495 12.5354ZM27.6 12.6254C27.6374 12.5343 27.6519 12.4353 27.642 12.3373C27.6321 12.2393 27.5983 12.1452 27.5434 12.0634C27.4885 11.9815 27.4144 11.9144 27.3275 11.8681C27.2405 11.8217 27.1435 11.7974 27.045 11.7974H19.575C18.8462 11.7972 18.1282 11.974 17.4828 12.3126C16.8374 12.6513 16.284 13.1416 15.87 13.7414L6.156 27.8264C6.09627 27.9128 6.06025 28.0133 6.05154 28.118C6.04283 28.2226 6.06175 28.3277 6.10639 28.4228C6.15103 28.5178 6.21983 28.5995 6.30593 28.6596C6.39202 28.7198 6.49239 28.7562 6.597 28.7654L17.19 29.7254C18.003 29.8034 18.816 29.8724 19.629 29.9354C19.8817 29.9549 20.1341 29.8936 20.3497 29.7604C20.5654 29.6273 20.7332 29.4291 20.829 29.1944L27.6 12.6254Z" fill="#FDB202"/>
</svg>
