<svg width="72" height="73" viewBox="0 0 72 73" fill="none" xmlns="http://www.w3.org/2000/svg">
<path fill-rule="evenodd" clip-rule="evenodd" d="M23.25 23.1974C23.25 21.5231 23.5798 19.8651 24.2205 18.3182C24.8613 16.7713 25.8004 15.3658 26.9844 14.1818C28.1683 12.9979 29.5739 12.0587 31.1208 11.418C32.6677 10.7772 34.3256 10.4474 36 10.4474C37.6744 10.4474 39.3323 10.7772 40.8792 11.418C42.4261 12.0587 43.8317 12.9979 45.0156 14.1818C46.1996 15.3658 47.1387 16.7713 47.7795 18.3182C48.4202 19.8651 48.75 21.5231 48.75 23.1974C48.75 26.579 47.4067 29.822 45.0156 32.2131C42.6245 34.6042 39.3815 35.9474 36 35.9474C32.6185 35.9474 29.3755 34.6042 26.9844 32.2131C24.5933 29.822 23.25 26.579 23.25 23.1974ZM36 14.9474C33.812 14.9474 31.7135 15.8166 30.1664 17.3638C28.6192 18.911 27.75 21.0094 27.75 23.1974C27.75 25.3855 28.6192 27.4839 30.1664 29.0311C31.7135 30.5783 33.812 31.4474 36 31.4474C38.188 31.4474 40.2865 30.5783 41.8336 29.0311C43.3808 27.4839 44.25 25.3855 44.25 23.1974C44.25 21.0094 43.3808 18.911 41.8336 17.3638C40.2865 15.8166 38.188 14.9474 36 14.9474ZM24 44.9474C22.2098 44.9474 20.4929 45.6586 19.227 46.9245C17.9612 48.1903 17.25 49.9072 17.25 51.6974V55.2614C17.25 55.3154 17.289 55.3634 17.343 55.3725C29.7 57.3885 42.303 57.3885 54.657 55.3725C54.6832 55.3681 54.707 55.3546 54.7241 55.3342C54.7412 55.3138 54.7504 55.288 54.75 55.2614V51.6974C54.75 49.9072 54.0388 48.1903 52.773 46.9245C51.5071 45.6586 49.7902 44.9474 48 44.9474H46.98C46.8996 44.9468 46.8196 44.959 46.743 44.9834L44.148 45.8325C38.8535 47.561 33.1465 47.561 27.852 45.8325L25.254 44.9834C25.1793 44.9595 25.1014 44.9474 25.023 44.9474H24ZM12.75 51.6974C12.75 48.7138 13.9353 45.8523 16.045 43.7425C18.1548 41.6327 21.0163 40.4474 24 40.4474H25.02C25.575 40.4474 26.127 40.5375 26.652 40.7055L29.25 41.5545C33.6361 42.9861 38.3639 42.9861 42.75 41.5545L45.348 40.7055C45.873 40.5345 46.425 40.4474 46.977 40.4474H48C50.9837 40.4474 53.8452 41.6327 55.955 43.7425C58.0647 45.8523 59.25 48.7138 59.25 51.6974V55.2614C59.25 57.5234 57.612 59.4494 55.38 59.8124C42.545 61.9078 29.455 61.9078 16.62 59.8124C15.5398 59.6366 14.5573 59.0822 13.8483 58.2484C13.1393 57.4147 12.75 56.3559 12.75 55.2614V51.6974Z" fill="#FDB202"/>
</svg>
