<svg viewBox="0 0 237 227" fill="none" xmlns="http://www.w3.org/2000/svg"><g clip-path="url(#clip0)"><path d="M36.8611 136.057C40.5216 133.793 45.4455 134.899 47.7062 138.628L47.7631 138.728L54.3395 149.438C56.6002 153.167 55.4233 158.047 51.6845 160.289C47.9456 162.532 43.0433 161.347 40.7825 157.618L34.2062 146.908C31.9454 143.179 33.1223 138.299 36.8611 136.057Z" fill="#F49000"/><path d="M170.962 173.038C173.023 176.88 171.532 181.673 167.68 183.716L156.543 189.542C152.69 191.585 147.874 190.089 145.813 186.247C143.752 182.405 145.243 177.612 149.095 175.569L160.232 169.743C164.084 167.7 168.822 169.175 170.905 172.938C170.905 172.938 170.883 173.016 170.962 173.038Z" fill="#F49000"/><path d="M39.3531 40.4706L120.043 85.8046C123.547 87.7781 124.788 92.1491 122.893 95.6555C122.521 96.3923 122.014 97.0078 121.35 97.5802C103.789 113.553 77.4734 116.62 56.1578 104.615C35.0912 92.9299 23.91 68.9466 28.6313 45.4038C29.4717 41.4388 33.2751 38.9624 37.2799 39.731C38.0068 39.8476 38.6907 40.1201 39.3531 40.4706Z" fill="#58CC02"/><path d="M217.737 89.6634C221.758 89.7649 224.974 93.086 224.882 97.0895C224.845 97.8348 224.709 98.6364 224.515 99.3385C216.424 121.952 194.63 136.758 170.53 136.071C146.074 135.454 125.029 119.411 118.158 96.616C116.924 92.8343 119.048 88.8035 122.842 87.5836C123.598 87.2885 124.468 87.1926 125.295 87.2527L217.737 89.6634Z" fill="#58CC02"/><path d="M178.167 38.0424C175.481 37.3855 172.665 37.1967 169.899 37.4411C152.83 39.7007 141.838 40.1106 135.938 38.5676C130.081 36.8686 120.853 30.8823 107.355 20.1933C105.048 18.466 102.512 17.2632 99.7906 16.4287C88.7396 13.3811 77.3309 19.8875 74.2979 30.886L57.3259 92.4304C48.3344 125.036 67.5334 158.784 100.173 167.953C132.978 176.832 166.683 157.672 175.674 125.067L192.646 63.5227C195.679 52.5243 189.218 41.0899 178.167 38.0424Z" fill="#58CC02"/><path d="M132.257 131.728L117.366 127.622C116.739 127.449 116.04 127.843 115.867 128.468C115.846 128.546 115.803 128.702 115.86 128.801C116.224 132.679 118.949 135.948 122.811 136.929C126.808 138.032 131.002 136.586 133.103 133.556C133.431 132.975 133.29 132.265 132.706 131.936C132.492 131.793 132.414 131.772 132.257 131.728ZM106.925 126.337C107.254 125.756 107.112 125.046 106.607 124.739C106.471 124.617 106.393 124.596 106.236 124.553L91.3448 120.446C90.7393 120.195 90.1615 120.455 89.911 121.058C89.868 121.214 89.8035 121.448 89.8388 121.625C90.1817 125.581 93.0065 128.794 96.79 129.754C100.63 130.813 104.803 129.445 106.925 126.337ZM115.684 140.755L100.792 136.649C100.165 136.476 99.4874 136.793 99.3153 137.417C99.2723 137.573 99.2508 137.651 99.2862 137.828C99.6291 141.784 102.454 144.997 106.237 145.956C110.235 147.059 114.407 145.691 116.451 142.562C116.779 141.981 116.638 141.27 116.132 140.963C115.997 140.842 115.84 140.799 115.684 140.755Z" fill="#89E219"/><path d="M109.6 32.2282L122.114 56.5789C122.661 57.6531 122.195 59.0356 121.061 59.4782C120.861 59.591 120.683 59.6258 120.505 59.6605C111.486 60.8665 103.113 54.5287 101.88 45.5434C101.168 40.4788 102.901 35.4171 106.514 31.7969C107.742 30.7086 109.039 30.8984 109.6 32.2282Z" fill="#89E219"/><path d="M99.4743 34.3881L111.674 58.6523C112.222 59.7265 111.756 61.109 110.622 61.5516C110.422 61.6644 110.244 61.6992 110.066 61.7339C101.046 62.9399 92.7521 56.6237 91.5192 47.6384C90.8074 42.5738 92.5406 37.5121 96.075 33.8703C96.8818 33.0856 98.2433 33.0414 99.0333 33.8468C99.2469 33.9896 99.3606 34.1889 99.4743 34.3881Z" fill="#89E219"/><path d="M103.723 40.0916L105.448 40.5671C117.674 43.9388 124.918 56.5122 121.562 68.6807L121.541 68.7587L117.604 83.0332C114.248 95.2017 101.641 102.385 89.4145 99.013L89.3361 98.9914L87.6119 98.5159C75.3852 95.1442 68.1417 82.5709 71.4974 70.4024L71.5189 70.3244L75.4554 56.0498C78.8111 43.8813 91.4968 36.7199 103.723 40.0916Z" fill="#89E219"/><path d="M161.644 46.5798C162.864 45.8251 164.096 46.2489 164.536 47.7131C166.738 56.5462 161.328 65.4621 152.464 67.6341C147.486 68.8634 142.228 67.7489 138.141 64.5237C137.194 63.675 137.147 62.3189 137.897 61.4346C138.018 61.3002 138.139 61.1658 138.339 61.053L161.644 46.5798Z" fill="#89E219"/><path d="M169.23 53.6243C170.172 52.9608 171.526 53.2502 172.116 54.1684C172.23 54.3676 172.343 54.5669 172.436 54.8441C174.638 63.6772 169.228 72.5931 160.364 74.7651C155.386 75.9944 150.127 74.8799 146.041 71.6546C145.094 70.806 145.047 69.4499 145.796 68.5656C145.918 68.4312 146.039 68.2968 146.239 68.184L169.23 53.6243Z" fill="#89E219"/><path d="M162.663 56.3451C174.889 59.7169 182.111 72.3682 178.756 84.5367L174.819 98.8112C171.463 110.98 158.856 118.163 146.629 114.791L146.551 114.769L144.827 114.294C132.6 110.922 125.357 98.3489 128.712 86.1804L128.734 86.1024L132.67 71.8278C136.026 59.6593 148.633 52.4763 160.86 55.848L160.938 55.8696L162.663 56.3451" fill="#89E219"/><path d="M142.719 58.3162C135.02 62.9919 124.98 60.5589 120.266 52.88C120.095 52.5811 119.925 52.2823 119.754 51.9834C115.683 66.1368 112.198 78.7733 109.279 89.9709L120.743 93.0485L132.164 96.2821C135.476 85.1925 138.982 72.478 142.719 58.3162Z" fill="#89E219"/><path d="M101.677 48.4248C110.69 50.9104 115.979 60.1747 113.505 69.1451L110.816 78.8955C108.107 87.801 98.7041 92.846 89.8337 90.148C81.177 87.5929 76.0591 78.6274 78.29 69.9258L80.9789 60.1754C83.4311 51.283 92.6422 46.0172 101.599 48.4032L101.677 48.4248Z" fill="white"/><path d="M101.392 58.334C105.703 59.5227 108.205 63.9059 107.022 68.196L104.699 76.6204C103.359 80.8673 98.9284 83.1708 94.6392 81.9041C90.6066 80.6241 88.2183 76.4402 89.1801 72.3408L91.5032 63.9165C92.7432 59.726 97.1382 57.2448 101.392 58.334Z" fill="#4B4B4B"/><path d="M95.0937 56.0936C97.8369 56.8501 99.3507 59.6178 98.6194 62.2699C97.888 64.922 95.0912 66.5009 92.4264 65.766C89.7616 65.0311 88.1693 62.2419 88.9007 59.5898C89.6321 56.9377 92.3505 55.3371 95.0153 56.072L95.0937 56.0936Z" fill="white"/><path d="M160.146 64.5486C169.159 67.0342 174.448 76.2985 171.974 85.2689L169.285 95.0193C166.576 103.925 157.173 108.97 148.302 106.272C139.646 103.717 134.528 94.7512 136.759 86.0496L139.448 76.2992C141.9 67.4069 151.111 62.141 160.067 64.527C160.067 64.527 160.067 64.527 160.146 64.5486Z" fill="white"/><path d="M155.314 73.2042C159.625 74.3929 162.127 78.7761 160.944 83.0663L158.62 91.4906C157.281 95.7375 152.85 98.041 148.561 96.7743C144.528 95.4944 142.14 91.3105 143.102 87.2111L145.425 78.7867C146.665 74.5962 151.06 72.1151 155.314 73.2042Z" fill="#4B4B4B"/><path d="M148.076 70.7045C150.819 71.461 152.333 74.2286 151.602 76.8807C150.871 79.5328 148.074 81.1117 145.409 80.3769C142.744 79.642 141.152 76.8527 141.883 74.2006C142.515 71.6049 145.233 70.0044 148.076 70.7045C147.998 70.6829 147.998 70.6829 148.076 70.7045Z" fill="white"/><path d="M135.015 94.2136C148.683 92.3591 160.88 91.8618 171.194 92.6914C171.194 92.6914 168.485 110.158 154.534 110.592C136.656 111.201 135.015 94.2136 135.015 94.2136ZM82.9554 90.9366C71.1203 83.3922 77.826 67.0275 77.826 67.0275C87.1283 71.5232 97.4034 78.3018 108.111 86.8781C108.132 86.8001 98.0162 100.546 82.9554 90.9366Z" fill="#89E219"/><path d="M124.137 81.0577C128.761 82.3329 131.49 87.1145 130.299 91.7383C130.299 91.7383 130.299 91.7383 130.278 91.8163L126.428 105.779C125.158 110.381 120.342 113.166 115.64 111.869C111.016 110.594 108.208 105.79 109.498 101.11L113.349 87.1477C114.696 82.5671 119.491 79.8604 124.137 81.0577Z" fill="#F49000"/><path d="M123.232 84.3338C126.837 85.328 128.941 89.0138 127.952 92.602L125.392 101.884C124.402 105.472 120.707 107.559 117.101 106.565C113.496 105.57 111.47 101.906 112.381 98.2965L114.941 89.0141C115.909 85.504 119.605 83.4176 123.232 84.3338Z" fill="#B66E28"/><path d="M121.426 90.8861L133.228 92.1264C133.485 92.1132 133.685 92.0004 133.671 91.7448C134.337 85.0459 129.329 79.0483 122.579 78.446C117.483 77.964 112.589 80.7271 110.393 85.3255C110.328 85.5595 110.421 85.8368 110.577 85.88L121.426 90.8861Z" fill="#FFC200"/><path d="M125.885 84.813C125.728 84.7698 125.571 84.7266 125.436 84.6053C124.133 83.8263 122.722 83.4372 121.204 83.4382C120.199 83.4128 119.509 82.5511 119.532 81.5502C119.612 80.6489 120.318 79.9206 121.167 79.9027C123.355 79.9186 125.471 80.5022 127.28 81.5886C128.156 82.0819 128.347 83.2257 127.875 84.0189C127.446 84.656 126.669 85.0292 125.885 84.813Z" fill="#FFDE00"/></g><path opacity="0.3" d="M55.5749 226.992C52.8708 226.992 50.7461 224.858 50.7461 222.143C50.7461 219.428 52.8708 217.294 55.5749 217.294H159.104C161.808 217.294 163.933 219.428 163.933 222.143C163.933 224.858 161.808 226.992 159.104 226.992H55.5749Z" fill="#AFAFAF"/><defs><clipPath id="clip0"><rect width="203.255" height="153.981" fill="white" transform="translate(41.0078 0.218384) rotate(15.4172)"/></clipPath></defs></svg>