<svg width="80" height="80" viewBox="0 0 80 80" fill="none" xmlns="http://www.w3.org/2000/svg">
<circle cx="39.6502" cy="39.6502" r="27.6695" transform="rotate(-20 39.6502 39.6502)" fill="#FDB202"/>
<circle cx="39.6502" cy="39.6502" r="32.5785" transform="rotate(-20 39.6502 39.6502)" stroke="#FDB202" stroke-width="3.28644"/>
<path d="M28.003 53.6059C28.9229 51.2544 32.3676 50.2016 32.7891 47.7152C33.0207 46.3501 31.3876 45.2014 31.3707 43.818C31.3603 42.9711 31.596 42.0231 32.1805 41.4049C33.9189 39.5659 36.5923 39.9188 38.8992 38.8712C40.5588 38.1176 42.2867 36.0572 44.1074 36.0929C45.6061 36.1222 47.1948 37.0451 48.0166 38.2891C48.7857 39.4534 48.6155 42.1316 48.729 42.4433C48.8424 42.7551 50.8658 44.4328 52.6665 44.7175C53.7425 44.8877 55.4332 43.8471 56.252 44.56C57.5128 45.6579 56.7253 47.23 56.4937 48.8855C56.3752 49.7325 55.8434 51.4479 55.2549 52.0728C53.891 53.5207 51.2026 52.4926 49.4292 53.3988C47.9383 54.1606 47.2374 56.1514 45.6598 56.7126C43.9312 57.3276 41.8698 55.8285 40.1648 56.506C38.7303 57.0758 38.4309 59.4762 36.9228 59.8043C33.7433 60.4963 29.5849 59.0348 27.8343 56.3156C27.3448 55.5553 27.6729 54.4503 28.0032 53.6061L28.003 53.6059Z" fill="#F6F1E9"/>
<path d="M26.8552 42.1511C28.818 46.079 26.9665 47.8923 24.9084 48.6414C22.8502 49.3905 20.8958 47.9917 19.7442 44.8276C18.5926 41.6636 19.6129 38.2993 21.6711 37.5502C23.7293 36.801 25.7037 38.9872 26.8552 42.1511Z" fill="#F6F1E9"/>
<path d="M44.9161 24.7645C46.7787 28.9054 45.3328 31.1007 43.2747 31.8498C41.2165 32.5989 38.3991 31.5142 37.4629 27.4773C36.7022 24.197 37.3299 21.9205 39.3881 21.1714C41.4462 20.4223 43.7645 21.6005 44.9161 24.7645Z" fill="#F6F1E9"/>
<path d="M58.3373 31.1237C59.3898 34.0154 58.501 36.036 56.4665 36.8467C51.7927 38.7092 51.8901 34.6476 50.8376 31.756C49.7851 28.8644 50.3364 26.8963 52.3946 26.1472C54.4527 25.3981 57.2848 28.2321 58.3373 31.1237Z" fill="#F6F1E9"/>
<path d="M33.6082 28.5518C35.5495 32.9091 34.1309 35.1792 32.0728 35.9283C30.0146 36.6774 27.1627 35.4979 26.155 31.2645C25.3361 27.8246 25.9523 26.0047 27.9886 24.7071C29.8393 23.5277 32.3981 25.2271 33.6082 28.5518Z" fill="#F6F1E9"/>
</svg>
